<?xml version="1.0" encoding="UTF-8" standalone="no"?>
<!DOCTYPE svg PUBLIC "-//W3C//DTD SVG 20010904//EN"
              "http://www.w3.org/TR/2001/REC-SVG-20010904/DTD/svg10.dtd">

<svg xmlns="http://www.w3.org/2000/svg"
     width="115.655mm" height="65.0241mm"
     viewBox="0 0 1366 768">
  <path id="Selection"
        fill="none" stroke="black" stroke-width="1"
        d="M 367.00,40.08
           C 367.00,40.08 429.00,40.08 429.00,40.08
             429.00,40.08 548.00,40.08 548.00,40.08
             548.00,40.08 911.00,40.08 911.00,40.08
             911.00,40.08 972.00,40.08 972.00,40.08
             983.73,40.00 1001.92,39.64 1013.00,42.48
             1036.54,48.50 1054.81,65.97 1062.33,89.00
             1064.80,96.58 1065.99,108.97 1066.00,117.00
             1066.00,117.00 1066.00,587.00 1066.00,587.00
             1066.00,587.00 1066.00,634.00 1066.00,634.00
             1066.00,645.36 1066.37,661.05 1064.19,672.00
             1060.73,689.44 1049.71,705.71 1035.00,715.64
             1029.46,719.38 1023.35,722.26 1017.00,724.33
             1009.42,726.80 997.03,727.99 989.00,728.00
             989.00,728.00 457.00,728.00 457.00,728.00
             457.00,728.00 401.00,728.00 401.00,728.00
             371.38,728.00 344.76,731.02 321.09,709.27
             317.23,705.73 313.29,701.34 310.36,697.00
             306.62,691.46 303.74,685.35 301.67,679.00
             299.22,671.50 298.01,659.92 298.00,652.00
             298.00,652.00 298.00,190.00 298.00,190.00
             298.00,190.00 298.00,138.00 298.00,138.00
             298.00,106.30 295.98,81.21 322.04,57.87
             327.38,53.09 331.59,50.38 338.00,47.26
             350.79,41.04 354.26,42.23 367.00,40.08 Z
           M 741.00,139.00
           C 741.00,139.00 404.00,139.00 404.00,139.00
             404.00,139.00 404.00,630.00 404.00,630.00
             404.00,630.00 959.00,630.00 959.00,630.00
             959.00,630.00 959.00,139.00 959.00,139.00
             959.00,139.00 855.00,139.00 855.00,139.00
             855.00,139.00 855.00,538.00 855.00,538.00
             855.00,538.00 741.00,538.00 741.00,538.00
             741.00,538.00 741.00,139.00 741.00,139.00 Z
           M 512.00,225.00
           C 512.00,225.00 633.00,225.00 633.00,225.00
             633.00,225.00 633.00,539.00 633.00,539.00
             633.00,539.00 512.00,539.00 512.00,539.00
             512.00,539.00 512.00,225.00 512.00,225.00 Z" />
</svg>
